<svg width="845" height="300" viewBox="0 0 845 300" fill="none" xmlns="http://www.w3.org/2000/svg"><rect width="844.95" height="299.655" rx="111" fill="#506bd8"/><circle cx="157.957" cy="140.943" r="100.616" fill="#5a2e98"/><path fill-rule="evenodd" clip-rule="evenodd" d="M98.148 141.983c0-33.032 26.778-59.81 59.81-59.81 33.031 0 59.809 26.778 59.809 59.81 0 13.381-4.395 25.735-11.819 35.699l-36.952 63.273c-3.624.399-7.307.604-11.038.604-11.274 0-22.11-1.873-32.214-5.325l21.566-35.387c-27.952-5.023-49.162-29.467-49.162-58.864m59.81 20.958c-11.576 0-20.959-9.383-20.959-20.958s9.383-20.959 20.959-20.959c11.575 0 20.958 9.384 20.958 20.959s-9.383 20.958-20.958 20.958" fill="#fff"/><path d="M269.913 218.327h-32.039l62.09-123.335h39.686l21.138 123.335H328.75l-13.55-92.26h-.964zm3.854-48.539h66.967l-3.854 22.644h-66.967zm138.722-4.215-8.792 52.754h-29.449l15.417-92.501h28.003l-2.77 16.983h1.024q4.336-8.492 12.586-13.31 8.251-4.878 18.549-4.878 9.696 0 16.2 4.336t9.214 12.165q2.71 7.769.903 18.248l-9.876 58.957h-29.449l8.853-53.176q1.325-7.649-1.867-11.984-3.132-4.396-10.238-4.396-4.637 0-8.491 2.047-3.795 1.987-6.384 5.721-2.529 3.734-3.433 9.034m69.06 52.754 15.417-92.501h29.449l-15.417 92.501zm32.219-103.341q-6.263 0-10.177-4.156-3.915-4.155-3.072-9.936.844-5.842 5.902-9.937 5.06-4.095 11.262-4.095 6.263 0 10.057 4.095 3.854 4.095 3.011 9.937-.723 5.781-5.781 9.936-4.999 4.156-11.202 4.156m16.155 103.341 15.417-92.501h28.003l-2.77 16.983h1.024q4.215-8.432 11.924-13.31t17.224-4.878q9.575 0 15.597 4.939 6.082 4.938 6.564 13.249h.964q3.975-8.251 12.285-13.189 8.371-5 18.669-4.999 13.009 0 19.813 8.431 6.866 8.371 4.397 23.005l-10.359 62.27h-29.388l9.395-55.525q.963-6.925-2.048-10.539-2.95-3.673-8.612-3.673-6.082 0-10.177 3.914-4.035 3.915-4.999 10.599l-9.334 55.224h-28.365l9.455-55.826q.903-6.444-1.987-10.177-2.83-3.735-8.612-3.734-3.794 0-7.046 1.867-3.252 1.807-5.481 5.179-2.167 3.372-2.83 7.949l-9.274 54.742zm199.818 1.747q-14.514 0-24.089-5.721-9.515-5.782-13.369-16.441-3.855-10.72-1.386-25.474 2.409-14.333 9.817-25.053 7.467-10.78 18.789-16.741 11.322-6.023 25.233-6.023 9.877 0 17.525 3.072t12.647 9.153q4.998 6.023 6.805 14.815t-.121 20.175l-1.144 7.347h-80.337l2.711-17.103h52.995q.723-4.698-.783-8.371-1.505-3.673-4.878-5.721-3.312-2.108-8.13-2.108-4.878 0-9.154 2.288a22 22 0 0 0-7.166 6.023 19.7 19.7 0 0 0-3.854 8.551l-3.192 17.525q-.963 5.841.542 9.997 1.506 4.155 5.179 6.383 3.674 2.168 9.455 2.168 3.854 0 7.227-1.023 3.372-1.085 6.022-3.192a17.3 17.3 0 0 0 4.396-5.24l26.859.783q-3.252 9.094-10.057 15.839-6.805 6.684-16.621 10.418-9.756 3.674-21.921 3.674" fill="#fff"/></svg>