<svg width="595" height="595" viewBox="0 0 595 595" fill="none" xmlns="http://www.w3.org/2000/svg"><path d="M279.099 3.555c90.047-5.562 177.8 30.956 237.399 97.663 2.355 2.636 2.218 6.703-.365 9.286l-95.87 95.87c-2.894 2.894-7.841 2.759-10.888-.429-19.568-20.471-45.334-34.977-74.293-40.503-7.857-1.499-14.567 4.789-14.567 12.439v36.763c0 6.334 4.526 11.451 10.249 13.136 21.377 6.296 38.911 21.585 48.216 41.491 2.107 4.505 6.465 7.881 11.709 8.14l51.749 2.553h.026l53.51 2.64.019.001 88.715 4.375c3.636.18 6.464 3.082 6.506 6.604 1.076 89.746-39.308 175.803-109.246 232.302-2.749 2.22-6.803 1.882-9.255-.824l-78.582-86.738-9.118-10.524c-2.804-3.237-2.155-8.44 1.494-11.097 8.559-6.232 21.251-16.393 31.289-28.342 11.016-13.113 18.975-28.681 24.002-45.417 2.385-7.941-3.629-15.446-11.556-15.837l-37.607-1.854c-5.85-.288-10.91 3.363-13.178 8.408a77.65 77.65 0 0 1-38.441 38.697c-4.779 2.187-8.299 6.891-8.299 12.447v11.937q-.01.114-.01.231v185.961c0 3.534-2.607 6.453-6.012 6.799a292 292 0 0 1-34.544 1.457c-3.631-.062-6.563-3.077-6.563-6.835V397.248c0-.679-.206-1.31-.56-1.833v-10.61c0-5.556-3.521-10.26-8.299-12.447-26.679-12.206-45.204-39.129-45.204-70.373.001-27.048 13.882-50.856 34.924-64.685 3.773-2.479 6.377-6.674 6.377-11.429V10.377c0-3.639 2.759-6.605 6.273-6.822Zm-74.666 14.51c4.262-1.418 8.705 1.8 8.705 6.493V65.81c0 .618-.393 1.198-1.016 1.428C85.164 114.18 20.298 255.155 67.24 382.113c26.977 72.961 85.012 125.414 153.582 147.924 3.034.996 5.077 3.767 5.077 6.852V573.6c0 4.559-4.218 7.77-8.425 6.583-87.425-24.677-162.236-89.382-196.146-181.095-56.317-152.314 21.505-321.444 173.818-377.76a299 299 0 0 1 9.287-3.263Zm-1.109 131.257c4.102-2.841 9.814.077 9.814 5.57v43.247c0 1.924-.811 3.807-2.247 5.235-25.339 25.178-41.032 60.065-41.033 98.611 0 44.36 20.783 83.868 53.129 109.316 1.838 1.446 2.912 3.584 2.912 5.802v39.982c0 5.235-5.293 8.26-9.455 5.865-55.677-32.041-93.155-92.128-93.155-160.965 0-63.279 31.669-119.16 80.035-152.663Zm300.579 181.419c-6.62-.326-12.279 4.357-13.643 10.665-6.084 28.126-18.544 53.88-35.796 75.673-4.001 5.054-4.026 12.387.418 17.292l14.547 16.056c5.192 5.731 14.369 5.758 19.307-.444a246.3 246.3 0 0 0 48.386-103.051c1.612-7.731-4.221-14.761-11.916-15.14zm-169.085 63.362c.041-.013.084-.021.125-.032-.041.011-.084.019-.125.032Zm-25.945-122.868c-16.983 0-30.75 13.768-30.75 30.75 0 16.983 13.767 30.75 30.75 30.75s30.75-13.767 30.75-30.75c0-16.982-13.767-30.75-30.75-30.75Zm185.146 10.494Zm-48.582-3.833q.124-.381.148-.783h.002q-.024.402-.15.783ZM335.048 54.937c-7.801-1.228-14.533 4.944-14.533 12.647v37.117c0 6.828 5.245 12.34 11.838 13.172a184.4 184.4 0 0 1 70.573 24.098c5.177 3.05 11.889 2.427 16.247-1.93l22.571-22.571c5.468-5.469 5.043-14.637-1.394-19.264-31.147-22.385-67.265-37.276-105.302-43.268ZM445.409 277.98Z" fill="#11b8ff" stroke="#f5f5f5" stroke-width="6" stroke-linejoin="round"/></svg>